<svg width="23" height="22" viewBox="0 0 23 22" fill="none" xmlns="http://www.w3.org/2000/svg">
<path d="M20.4185 0.0625H3.23096C2.60936 0.0625 2.01321 0.30943 1.57368 0.748969C1.13414 1.18851 0.887207 1.78465 0.887207 2.40625L0.887207 19.5938C0.887207 20.2154 1.13414 20.8115 1.57368 21.251C2.01321 21.6906 2.60936 21.9375 3.23096 21.9375H9.93262V14.5005H6.85645V11H9.93262V8.33203C9.93262 5.29736 11.7393 3.62109 14.5063 3.62109C15.8315 3.62109 17.2173 3.85742 17.2173 3.85742V6.83594H15.6904C14.186 6.83594 13.7168 7.76953 13.7168 8.72705V11H17.0752L16.5381 14.5005H13.7168V21.9375H20.4185C21.0401 21.9375 21.6362 21.6906 22.0757 21.251C22.5153 20.8115 22.7622 20.2154 22.7622 19.5938V2.40625C22.7622 1.78465 22.5153 1.18851 22.0757 0.748969C21.6362 0.30943 21.0401 0.0625 20.4185 0.0625Z" fill="#E5E0DC"/>
</svg>
